<svg width="32" height="32" viewBox="0 0 32 32" fill="none" xmlns="http://www.w3.org/2000/svg">
<path d="M28.0001 31.9998H16.0001C15.6465 31.9998 15.3073 31.8594 15.0573 31.6093C14.8072 31.3593 14.6667 31.0201 14.6667 30.6665V27.9998C14.6667 27.6462 14.8072 27.3071 15.0573 27.057C15.3073 26.807 15.6465 26.6665 16.0001 26.6665H28.0001C28.3537 26.6665 28.6928 26.807 28.9429 27.057C29.1929 27.3071 29.3334 27.6462 29.3334 27.9998V30.6665C29.3334 31.0201 29.1929 31.3593 28.9429 31.6093C28.6928 31.8594 28.3537 31.9998 28.0001 31.9998Z" fill="#D6B1FF"/>
<path d="M28.0001 0H4.00008C3.64646 0 3.30732 0.140475 3.05727 0.390523C2.80722 0.640572 2.66675 0.979711 2.66675 1.33333V4C2.66675 4.35362 2.80722 4.69276 3.05727 4.94281C3.30732 5.19286 3.64646 5.33333 4.00008 5.33333H28.0001C28.3537 5.33333 28.6928 5.19286 28.9429 4.94281C29.1929 4.69276 29.3334 4.35362 29.3334 4V1.33333C29.3334 0.979711 29.1929 0.640572 28.9429 0.390523C28.6928 0.140475 28.3537 0 28.0001 0Z" fill="#2EC5CE"/>
<path d="M28.0001 8H4.00008C3.64646 8 3.30732 8.14047 3.05727 8.39052C2.80722 8.64057 2.66675 8.97971 2.66675 9.33333V22.6667C2.66675 23.0203 2.80722 23.3594 3.05727 23.6095C3.30732 23.8595 3.64646 24 4.00008 24H28.0001C28.3537 24 28.6928 23.8595 28.9429 23.6095C29.1929 23.3594 29.3334 23.0203 29.3334 22.6667V9.33333C29.3334 8.97971 29.1929 8.64057 28.9429 8.39052C28.6928 8.14047 28.3537 8 28.0001 8Z" fill="#8C30F5"/>
</svg>
