<svg width="32" height="32" viewBox="0 0 32 32" fill="none" xmlns="http://www.w3.org/2000/svg">
<path d="M6.66658 1.3335H2.66659C2.31296 1.3335 1.97382 1.47397 1.72378 1.72402C1.47373 1.97407 1.33325 2.31321 1.33325 2.66683V29.3335C1.33325 29.6871 1.47373 30.0263 1.72378 30.2763C1.97382 30.5264 2.31296 30.6668 2.66659 30.6668H6.66658V1.3335Z" fill="#D6B1FF"/>
<path d="M9.33325 30.6668H22.6666V1.3335H9.33325V30.6668ZM15.9999 25.3335C15.6463 25.3335 15.3072 25.193 15.0571 24.943C14.8071 24.6929 14.6666 24.3538 14.6666 24.0002C14.6666 23.6465 14.8071 23.3074 15.0571 23.0574C15.3072 22.8073 15.6463 22.6668 15.9999 22.6668C16.3535 22.6668 16.6927 22.8073 16.9427 23.0574C17.1928 23.3074 17.3333 23.6465 17.3333 24.0002C17.3333 24.3538 17.1928 24.6929 16.9427 24.943C16.6927 25.193 16.3535 25.3335 15.9999 25.3335ZM15.9999 6.66683C16.3535 6.66683 16.6927 6.8073 16.9427 7.05735C17.1928 7.3074 17.3333 7.64654 17.3333 8.00016C17.3333 8.35378 17.1928 8.69292 16.9427 8.94297C16.6927 9.19302 16.3535 9.3335 15.9999 9.3335C15.6463 9.3335 15.3072 9.19302 15.0571 8.94297C14.8071 8.69292 14.6666 8.35378 14.6666 8.00016C14.6666 7.64654 14.8071 7.3074 15.0571 7.05735C15.3072 6.8073 15.6463 6.66683 15.9999 6.66683ZM15.9999 14.6668C16.3535 14.6668 16.6927 14.8073 16.9427 15.0574C17.1928 15.3074 17.3333 15.6465 17.3333 16.0002C17.3333 16.3538 17.1928 16.6929 16.9427 16.943C16.6927 17.193 16.3535 17.3335 15.9999 17.3335C15.6463 17.3335 15.3072 17.193 15.0571 16.943C14.8071 16.6929 14.6666 16.3538 14.6666 16.0002C14.6666 15.6465 14.8071 15.3074 15.0571 15.0574C15.3072 14.8073 15.6463 14.6668 15.9999 14.6668Z" fill="#8C30F5"/>
<path d="M29.3333 1.3335H25.3333V30.6668H29.3333C29.6869 30.6668 30.026 30.5264 30.2761 30.2763C30.5261 30.0263 30.6666 29.6871 30.6666 29.3335V2.66683C30.6666 2.31321 30.5261 1.97407 30.2761 1.72402C30.026 1.47397 29.6869 1.3335 29.3333 1.3335Z" fill="#2EC5CE"/>
</svg>
