<svg width="32" height="32" viewBox="0 0 32 32" fill="none" xmlns="http://www.w3.org/2000/svg">
<path d="M11.9999 13.3335H2.66659C2.31296 13.3335 1.97382 13.193 1.72378 12.943C1.47373 12.6929 1.33325 12.3538 1.33325 12.0002V2.66683C1.33325 2.31321 1.47373 1.97407 1.72378 1.72402C1.97382 1.47397 2.31296 1.3335 2.66659 1.3335H11.9999C12.3535 1.3335 12.6927 1.47397 12.9427 1.72402C13.1928 1.97407 13.3333 2.31321 13.3333 2.66683V12.0002C13.3333 12.3538 13.1928 12.6929 12.9427 12.943C12.6927 13.193 12.3535 13.3335 11.9999 13.3335Z" fill="#8C30F5"/>
<path d="M11.9999 30.667H2.66659C2.31296 30.667 1.97382 30.5265 1.72378 30.2765C1.47373 30.0264 1.33325 29.6873 1.33325 29.3337V20.0003C1.33325 19.6467 1.47373 19.3076 1.72378 19.0575C1.97382 18.8075 2.31296 18.667 2.66659 18.667H11.9999C12.3535 18.667 12.6927 18.8075 12.9427 19.0575C13.1928 19.3076 13.3333 19.6467 13.3333 20.0003V29.3337C13.3333 29.6873 13.1928 30.0264 12.9427 30.2765C12.6927 30.5265 12.3535 30.667 11.9999 30.667Z" fill="#8C30F5"/>
<path d="M17.3333 2.66699H30.6666V5.33366H17.3333V2.66699Z" fill="#2EC5CE"/>
<path d="M30.6666 20H17.3333V22.6667H30.6666V20Z" fill="#2EC5CE"/>
<path d="M30.6666 26.667H17.3333V29.3337H30.6666V26.667Z" fill="#D6B1FF"/>
<path d="M30.6666 9.3335H17.3333V12.0002H30.6666V9.3335Z" fill="#D6B1FF"/>
</svg>
