<svg width="160" height="90" viewBox="0 0 160 90" fill="none" xmlns="http://www.w3.org/2000/svg">
<rect width="160" height="90" rx="16" fill="white"/>
<g clip-path="url(#clip0_3476_291)">
<path fill-rule="evenodd" clip-rule="evenodd" d="M92.1404 53.4609C86.5069 57.725 78.3416 60 71.3115 60C61.4541 60 52.5799 56.256 45.8662 50.0289C45.3387 49.5392 45.8113 48.8719 46.4443 49.2532C53.6897 53.5823 62.6483 56.1866 71.9023 56.1866C78.1433 56.1866 85.0089 54.8606 91.3217 52.1089C92.2754 51.6929 93.0729 52.7502 92.1404 53.4609Z" fill="#FF9900"/>
<path fill-rule="evenodd" clip-rule="evenodd" d="M94.4827 50.7092C93.7653 49.7646 89.7228 50.2629 87.9083 50.4839C87.3555 50.5532 87.2711 50.0592 87.769 49.7039C90.9887 47.3769 96.2719 48.0485 96.888 48.8286C97.504 49.6129 96.7276 55.0513 93.702 57.647C93.2379 58.0457 92.7948 57.8333 93.0015 57.3046C93.6809 55.5626 95.2043 51.6583 94.4827 50.7092Z" fill="#FF9900"/>
<path fill-rule="evenodd" clip-rule="evenodd" d="M88.0347 33.276V31.014C88.0347 30.6717 88.2879 30.442 88.5918 30.442H98.4534C98.7699 30.442 99.0231 30.676 99.0231 31.014V32.951C99.0189 33.276 98.753 33.7007 98.2804 34.3724L93.1702 41.8648C95.0691 41.8171 97.0735 42.1075 98.7952 43.1041C99.1834 43.3295 99.2889 43.6588 99.3185 43.9838V46.3975C99.3185 46.7269 98.964 47.1125 98.5927 46.9132C95.5586 45.2795 91.5287 45.1018 88.174 46.9305C87.8322 47.1212 87.4735 46.7399 87.4735 46.4105V44.1182C87.4735 43.7498 87.4777 43.1215 87.8364 42.5625L93.7568 33.8437H88.6044C88.2879 33.8437 88.0347 33.6141 88.0347 33.276Z" fill="black"/>
<path fill-rule="evenodd" clip-rule="evenodd" d="M52.0608 47.3899H49.0606C48.7736 47.3682 48.5458 47.1472 48.5247 46.8655V31.053C48.5247 30.7367 48.7821 30.4854 49.1028 30.4854H51.9005C52.1917 30.4984 52.4237 30.728 52.4448 31.014V33.0811H52.4997C53.2297 31.0834 54.6012 30.1517 56.4494 30.1517C58.3272 30.1517 59.5003 31.0834 60.3443 33.0811C61.0701 31.0834 62.72 30.1517 64.4881 30.1517C65.7456 30.1517 67.1213 30.6847 67.961 31.8807C68.9105 33.2111 68.7163 35.1438 68.7163 36.8381L68.7121 46.8179C68.7121 47.1342 68.4547 47.3899 68.134 47.3899H65.138C64.8384 47.3682 64.5978 47.1212 64.5978 46.8179V38.4371C64.5978 37.7698 64.6569 36.1058 64.5134 35.4731C64.2898 34.4114 63.6188 34.1124 62.7496 34.1124C62.0238 34.1124 61.2642 34.6107 60.9562 35.4081C60.6481 36.2054 60.6776 37.5401 60.6776 38.4371V46.8179C60.6776 47.1342 60.4202 47.3899 60.0995 47.3899H57.1035C56.7997 47.3682 56.5634 47.1212 56.5634 46.8179L56.5591 38.4371C56.5591 36.6734 56.8419 34.0777 54.7109 34.0777C52.5546 34.0777 52.639 36.6084 52.639 38.4371V46.8179C52.639 47.1342 52.3815 47.3899 52.0608 47.3899" fill="black"/>
<path fill-rule="evenodd" clip-rule="evenodd" d="M107.513 30.1517C111.965 30.1517 114.374 34.0777 114.374 39.0698C114.374 43.8928 111.712 47.7192 107.513 47.7192C103.141 47.7192 100.761 43.7932 100.761 38.9008C100.761 33.9781 103.171 30.1517 107.513 30.1517ZM107.538 33.3801C105.327 33.3801 105.188 36.4741 105.188 38.4025C105.188 40.3351 105.158 44.4605 107.513 44.4605C109.838 44.4605 109.948 41.1325 109.948 39.1045C109.948 37.7698 109.893 36.1751 109.501 34.9098C109.163 33.8091 108.492 33.3801 107.538 33.3801Z" fill="black"/>
<path fill-rule="evenodd" clip-rule="evenodd" d="M120.147 47.3899H117.16C116.86 47.3682 116.619 47.1212 116.619 46.8179L116.615 31.001C116.641 30.7107 116.89 30.4854 117.193 30.4854H119.974C120.236 30.4984 120.451 30.6804 120.51 30.9274V33.3454H120.565C121.405 31.183 122.582 30.1517 124.654 30.1517C126 30.1517 127.312 30.65 128.156 32.0151C128.941 33.2804 128.941 35.4081 128.941 36.9378V46.8915C128.907 47.1689 128.658 47.3899 128.363 47.3899H125.354C125.08 47.3682 124.852 47.1602 124.823 46.8915V38.3028C124.823 36.5738 125.017 34.0431 122.945 34.0431C122.215 34.0431 121.544 34.5457 121.211 35.3084C120.789 36.2748 120.734 37.2368 120.734 38.3028V46.8179C120.73 47.1342 120.468 47.3899 120.147 47.3899" fill="black"/>
<path fill-rule="evenodd" clip-rule="evenodd" d="M80.1732 39.8368C80.1732 41.0371 80.2028 42.0382 79.612 43.1042C79.1352 43.9708 78.3756 44.5039 77.5359 44.5039C76.3839 44.5039 75.7087 43.6025 75.7087 42.2722C75.7087 39.6461 78 39.1695 80.1732 39.1695V39.8368ZM83.1988 47.3465C83.0005 47.5285 82.7135 47.5415 82.4899 47.4202C81.494 46.5709 81.3126 46.1765 80.7682 45.3662C79.1225 47.0909 77.9536 47.6065 75.8226 47.6065C73.295 47.6065 71.3328 46.0075 71.3328 42.8052C71.3328 40.3048 72.6493 38.6018 74.5314 37.7698C76.1602 37.0331 78.4347 36.9031 80.1732 36.6994V36.3008C80.1732 35.5684 80.2281 34.7017 79.8061 34.0691C79.4432 33.5014 78.7427 33.2674 78.1224 33.2674C76.9788 33.2674 75.9619 33.8697 75.7129 35.1178C75.6623 35.3951 75.4639 35.6681 75.1897 35.6811L72.2822 35.3604C72.0375 35.3041 71.7632 35.1004 71.8349 34.7147C72.5016 31.092 75.6918 30 78.5444 30C80.0044 30 81.9118 30.3987 83.0638 31.534C84.5238 32.9337 84.3846 34.8014 84.3846 36.8338V41.6352C84.3846 43.0782 84.9669 43.7108 85.5155 44.4909C85.7054 44.7682 85.7476 45.1019 85.5028 45.3099C84.8909 45.8342 83.8022 46.8092 83.203 47.3552L83.1988 47.3465" fill="black"/>
<path fill-rule="evenodd" clip-rule="evenodd" d="M40.8405 39.837C40.8405 41.0373 40.87 42.0383 40.2792 43.1043C39.8024 43.971 39.047 44.504 38.2031 44.504C37.0511 44.504 36.3801 43.6027 36.3801 42.2723C36.3801 39.6463 38.6715 39.1696 40.8405 39.1696V39.837ZM43.866 47.3467C43.6677 47.5287 43.3808 47.5417 43.1571 47.4204C42.1612 46.5711 41.984 46.1767 41.4354 45.3664C39.7897 47.0911 38.6251 47.6067 36.4899 47.6067C33.9664 47.6067 32 46.0077 32 42.8053C32 40.305 33.3208 38.602 35.1986 37.77C36.8274 37.0333 39.1019 36.9033 40.8405 36.6996V36.3009C40.8405 35.5686 40.8953 34.7019 40.4776 34.0693C40.1104 33.5016 39.4099 33.2676 38.7939 33.2676C37.6503 33.2676 36.6291 33.8699 36.3801 35.1179C36.3295 35.3953 36.1312 35.6683 35.8611 35.6813L32.9495 35.3606C32.7047 35.3043 32.4346 35.1006 32.5022 34.7149C33.1731 31.0922 36.359 30.0002 39.2116 30.0002C40.6717 30.0002 42.579 30.3989 43.731 31.5342C45.1911 32.9339 45.0518 34.8016 45.0518 36.834V41.6353C45.0518 43.0784 45.6341 43.711 46.1827 44.491C46.3768 44.7684 46.419 45.102 46.1743 45.31C45.5624 45.8344 44.4737 46.8094 43.8745 47.3554L43.866 47.3467" fill="black"/>
</g>
<defs>
<clipPath id="clip0_3476_291">
<rect width="96.9412" height="30" fill="white" transform="translate(32 30)"/>
</clipPath>
</defs>
</svg>
