<svg width="160" height="90" viewBox="0 0 160 90" fill="none" xmlns="http://www.w3.org/2000/svg">
<rect width="160" height="90" rx="16" fill="white"/>
<g clip-path="url(#clip0_3476_319)">
<path d="M73.8139 45.3848C73.8139 49.5489 70.53 52.6174 66.4999 52.6174C62.4698 52.6174 59.1859 49.5489 59.1859 45.3848C59.1859 41.1913 62.4698 38.1522 66.4999 38.1522C70.53 38.1522 73.8139 41.1913 73.8139 45.3848ZM70.6122 45.3848C70.6122 42.7826 68.7089 41.0022 66.4999 41.0022C64.2909 41.0022 62.3876 42.7826 62.3876 45.3848C62.3876 47.9609 64.2909 49.7674 66.4999 49.7674C68.7089 49.7674 70.6122 47.9576 70.6122 45.3848Z" fill="#EA4335"/>
<path d="M89.5924 45.3848C89.5924 49.5489 86.3085 52.6174 82.2784 52.6174C78.2483 52.6174 74.9644 49.5489 74.9644 45.3848C74.9644 41.1946 78.2483 38.1522 82.2784 38.1522C86.3085 38.1522 89.5924 41.1913 89.5924 45.3848ZM86.3906 45.3848C86.3906 42.7826 84.4874 41.0022 82.2784 41.0022C80.0694 41.0022 78.1661 42.7826 78.1661 45.3848C78.1661 47.9609 80.0694 49.7674 82.2784 49.7674C84.4874 49.7674 86.3906 47.9576 86.3906 45.3848Z" fill="#FBBC05"/>
<path d="M104.714 38.5891V51.5739C104.714 56.9152 101.538 59.0967 97.7842 59.0967C94.2505 59.0967 92.1236 56.7522 91.3216 54.8348L94.1091 53.6837C94.6055 54.8609 95.8218 56.25 97.7809 56.25C100.184 56.25 101.673 54.7793 101.673 52.0109V50.9706H101.561C100.845 51.8478 99.464 52.6141 97.7218 52.6141C94.0762 52.6141 90.7365 49.4641 90.7365 45.4109C90.7365 41.3282 94.0762 38.1522 97.7218 38.1522C99.4607 38.1522 100.841 38.9185 101.561 39.7696H101.673V38.5924H104.714V38.5891ZM101.9 45.4109C101.9 42.8641 100.187 41.0022 98.0077 41.0022C95.7987 41.0022 93.948 42.8641 93.948 45.4109C93.948 47.9315 95.7987 49.7674 98.0077 49.7674C100.187 49.7674 101.9 47.9315 101.9 45.4109Z" fill="#4285F4"/>
<path d="M109.727 30.9783V52.1739H106.604V30.9783H109.727Z" fill="#34A853"/>
<path d="M121.896 47.7652L124.381 49.4087C123.579 50.5859 121.646 52.6141 118.306 52.6141C114.164 52.6141 111.071 49.4381 111.071 45.3815C111.071 41.0804 114.191 38.1489 117.948 38.1489C121.732 38.1489 123.582 41.1359 124.187 42.75L124.519 43.5718L114.773 47.5761C115.519 49.0272 116.679 49.7674 118.306 49.7674C119.937 49.7674 121.068 48.9718 121.896 47.7652ZM114.247 45.1631L120.762 42.4794C120.404 41.5761 119.325 40.9468 118.056 40.9468C116.429 40.9468 114.164 42.3718 114.247 45.1631Z" fill="#EA4335"/>
<path d="M47.3652 43.5033V40.4348H57.7889C57.8908 40.9696 57.9434 41.6022 57.9434 42.287C57.9434 44.5891 57.309 47.4359 55.2644 49.4641C53.2756 51.5185 50.7346 52.6141 47.3685 52.6141C41.1294 52.6141 35.8831 47.5728 35.8831 41.3837C35.8831 35.1946 41.1294 30.1533 47.3685 30.1533C50.8201 30.1533 53.2789 31.4967 55.1263 33.2478L52.9436 35.413C51.6189 34.1804 49.8241 33.2217 47.3652 33.2217C42.8092 33.2217 39.2459 36.8641 39.2459 41.3837C39.2459 45.9033 42.8092 49.5457 47.3652 49.5457C50.3204 49.5457 52.0035 48.3685 53.0817 47.2989C53.9561 46.4315 54.5313 45.1924 54.7581 43.5L47.3652 43.5033Z" fill="#4285F4"/>
</g>
<defs>
<clipPath id="clip0_3476_319">
<rect width="89.4118" height="30" fill="white" transform="translate(35.7646 30)"/>
</clipPath>
</defs>
</svg>
