<svg width="32" height="32" viewBox="0 0 32 32" fill="none" xmlns="http://www.w3.org/2000/svg">
<path d="M30.6667 7.99998V2.66665C30.6667 2.31302 30.5262 1.97388 30.2762 1.72384C30.0261 1.47379 29.687 1.33331 29.3334 1.33331H2.66671C2.31309 1.33331 1.97395 1.47379 1.7239 1.72384C1.47385 1.97388 1.33337 2.31302 1.33337 2.66665V7.99998H30.6667Z" fill="#2EC5CE"/>
<path d="M1.33337 10.6666V29.3333C1.33337 29.6869 1.47385 30.0261 1.7239 30.2761C1.97395 30.5262 2.31309 30.6666 2.66671 30.6666H9.33337V10.6666H1.33337Z" fill="#D6B1FF"/>
<path d="M12 30.6666H29.3333C29.687 30.6666 30.0261 30.5262 30.2761 30.2761C30.5262 30.0261 30.6667 29.6869 30.6667 29.3333V10.6666H12V30.6666Z" fill="#8C30F5"/>
</svg>
